<svg width="711" height="442" viewBox="0 0 711 442" fill="none" xmlns="http://www.w3.org/2000/svg">
<path d="M661.222 145.346C649.284 119.776 633.613 96.13 614.722 75.1853C611.134 71.2096 607.417 67.3526 603.571 63.6141C559.644 21.0928 497.117 -3.31142 436.528 4.42071C395.173 9.71565 356.607 29.2239 323.648 54.7604C302.572 71.0766 282.649 90.3477 257.268 98.4357C225.073 108.659 190.349 99.0072 156.583 98.8562C104.357 98.619 51.4745 123.767 22.8213 167.518C-3.10868 207.117 -7.31732 260.109 12.1221 303.299C31.5615 346.489 73.9278 378.529 120.686 385.279C150.146 389.593 180.21 384.438 209.885 386.821C253.21 390.305 293.455 409.468 334.831 422.808C410.178 447.061 494.943 451.418 566.576 417.75C625.518 390.046 673.428 332.643 682.351 267.054C687.991 225.557 678.724 182.971 661.222 145.346Z" fill="#FFDF58"/>
<path opacity="0.7" d="M661.222 145.346C649.284 119.776 633.613 96.13 614.722 75.1853C611.134 71.2096 607.417 67.3526 603.571 63.6141C559.644 21.0928 497.117 -3.31142 436.528 4.42071C395.173 9.71565 356.607 29.2239 323.648 54.7604C302.572 71.0766 282.649 90.3477 257.268 98.4357C225.073 108.659 190.349 99.0072 156.583 98.8562C104.357 98.619 51.4745 123.767 22.8213 167.518C-3.10868 207.117 -7.31732 260.109 12.1221 303.299C31.5615 346.489 73.9278 378.529 120.686 385.279C150.146 389.593 180.21 384.438 209.885 386.821C253.21 390.305 293.455 409.468 334.831 422.808C410.178 447.061 494.943 451.418 566.576 417.75C625.518 390.046 673.428 332.643 682.351 267.054C687.991 225.557 678.724 182.971 661.222 145.346Z" fill="white"/>
<path d="M503.68 393.21H710.68" stroke="#282828" stroke-miterlimit="10"/>
<path d="M108.68 393.21H494.68" stroke="#282828" stroke-miterlimit="10"/>
<path d="M91.13 393.21H99.68" stroke="#282828" stroke-miterlimit="10"/>
<path d="M302.53 40.24H293.05V44.77H302.53V40.24Z" fill="white" stroke="#282828" stroke-miterlimit="10"/>
<path d="M313.65 40.24H304.17V44.77H313.65V40.24Z" fill="white" stroke="#282828" stroke-miterlimit="10"/>
<path d="M324.78 40.24H315.3V44.77H324.78V40.24Z" fill="white" stroke="#282828" stroke-miterlimit="10"/>
<path d="M335.91 40.24H326.43V44.77H335.91V40.24Z" fill="white" stroke="#282828" stroke-miterlimit="10"/>
<path d="M347.03 40.24H337.55V44.77H347.03V40.24Z" fill="white" stroke="#282828" stroke-miterlimit="10"/>
<path d="M358.16 40.24H348.68V44.77H358.16V40.24Z" fill="white" stroke="#282828" stroke-miterlimit="10"/>
<path d="M369.29 40.24H359.81V44.77H369.29V40.24Z" stroke="#282828" stroke-miterlimit="10"/>
<path d="M380.42 40.24H370.94V44.77H380.42V40.24Z" stroke="#282828" stroke-miterlimit="10"/>
<path d="M302.53 47.66H293.05V52.19H302.53V47.66Z" fill="white" stroke="#282828" stroke-miterlimit="10"/>
<path d="M313.65 47.66H304.17V52.19H313.65V47.66Z" fill="white" stroke="#282828" stroke-miterlimit="10"/>
<path d="M324.78 47.66H315.3V52.19H324.78V47.66Z" fill="white" stroke="#282828" stroke-miterlimit="10"/>
<path d="M335.91 47.66H326.43V52.19H335.91V47.66Z" fill="white" stroke="#282828" stroke-miterlimit="10"/>
<path d="M347.03 47.66H337.55V52.19H347.03V47.66Z" fill="white" stroke="#282828" stroke-miterlimit="10"/>
<path d="M358.16 47.66H348.68V52.19H358.16V47.66Z" stroke="#282828" stroke-miterlimit="10"/>
<path d="M369.29 47.66H359.81V52.19H369.29V47.66Z" stroke="#282828" stroke-miterlimit="10"/>
<path d="M380.42 47.66H370.94V52.19H380.42V47.66Z" stroke="#282828" stroke-miterlimit="10"/>
<path d="M302.53 55.08H293.05V59.61H302.53V55.08Z" fill="white" stroke="#282828" stroke-miterlimit="10"/>
<path d="M313.65 55.08H304.17V59.61H313.65V55.08Z" fill="white" stroke="#282828" stroke-miterlimit="10"/>
<path d="M324.78 55.08H315.3V59.61H324.78V55.08Z" fill="white" stroke="#282828" stroke-miterlimit="10"/>
<path d="M335.91 55.08H326.43V59.61H335.91V55.08Z" fill="white" stroke="#282828" stroke-miterlimit="10"/>
<path d="M347.03 55.08H337.55V59.61H347.03V55.08Z" fill="white" stroke="#282828" stroke-miterlimit="10"/>
<path d="M358.16 55.08H348.68V59.61H358.16V55.08Z" stroke="#282828" stroke-miterlimit="10"/>
<path d="M369.29 55.08H359.81V59.61H369.29V55.08Z" stroke="#282828" stroke-miterlimit="10"/>
<path d="M380.42 55.08H370.94V59.61H380.42V55.08Z" stroke="#282828" stroke-miterlimit="10"/>
<path d="M302.53 62.5H293.05V67.03H302.53V62.5Z" fill="white" stroke="#282828" stroke-miterlimit="10"/>
<path d="M313.65 62.5H304.17V67.03H313.65V62.5Z" fill="white" stroke="#282828" stroke-miterlimit="10"/>
<path d="M346.21 62.5H315.3V67.03H346.21V62.5Z" fill="white" stroke="#282828" stroke-miterlimit="10"/>
<path d="M358.16 62.5H348.68V67.03H358.16V62.5Z" stroke="#282828" stroke-miterlimit="10"/>
<path d="M369.29 62.5H359.81V67.03H369.29V62.5Z" stroke="#282828" stroke-miterlimit="10"/>
<path d="M380.42 62.5H370.94V67.03H380.42V62.5Z" stroke="#282828" stroke-miterlimit="10"/>
<path d="M391.11 117.15C391.11 117.15 416.84 81.15 456.11 60.53" stroke="#282828" stroke-miterlimit="10"/>
<path d="M429.01 78.31L430.88 49.77" stroke="#282828" stroke-miterlimit="10"/>
<path d="M419.66 86.6L446.88 89.07" stroke="#282828" stroke-miterlimit="10"/>
<path d="M429.56 63.71C429.56 63.71 423.06 60.31 423.37 49.79C423.683 43.313 426.317 37.165 430.79 32.47C434.163 37.4342 436.193 43.1879 436.68 49.17C437.29 58.76 429.56 63.71 429.56 63.71Z" stroke="#282828" stroke-miterlimit="10"/>
<path d="M407.91 84.74C407.91 84.74 401.42 81.34 401.72 70.82C402.036 64.3416 404.673 58.1935 409.15 53.5C412.514 58.4672 414.536 64.2202 415.02 70.2C415.68 79.79 407.91 84.74 407.91 84.74Z" stroke="#282828" stroke-miterlimit="10"/>
<path d="M435.12 87.83C436.583 86.1546 438.392 84.8166 440.422 83.9085C442.453 83.0003 444.656 82.5437 446.88 82.57C454.61 82.57 462.34 93.09 462.34 93.09C457.019 95.0616 451.345 95.9028 445.68 95.56C436.36 94.94 435.12 87.83 435.12 87.83Z" stroke="#282828" stroke-miterlimit="10"/>
<path d="M444.4 68.04C444.4 68.04 441.31 58.45 451.2 54.43C456.916 52.0173 463.344 51.9063 469.14 54.12C469.14 54.12 469.14 64.33 460.14 68.35C451.14 72.37 444.4 68.04 444.4 68.04Z" stroke="#282828" stroke-miterlimit="10"/>
<path d="M408.84 96.49L408.22 72.68" stroke="#282828" stroke-miterlimit="10"/>
<path d="M554.86 24H507V54.16H534.11L533.22 67.93L543.86 54.16H554.86V24Z" stroke="#282828" stroke-miterlimit="10"/>
<path d="M580.51 58.75H547.65V79.46H566.27L565.66 88.91L572.96 79.46H580.51V58.75Z" stroke="#282828" stroke-miterlimit="10"/>
<path d="M523.7 39.08C523.7 39.6002 523.546 40.1086 523.257 40.5411C522.968 40.9737 522.557 41.3107 522.076 41.5098C521.596 41.7089 521.067 41.7609 520.557 41.6595C520.047 41.558 519.578 41.3075 519.21 40.9397C518.842 40.5719 518.592 40.1033 518.49 39.5931C518.389 39.0829 518.441 38.5541 518.64 38.0735C518.839 37.593 519.176 37.1822 519.609 36.8932C520.041 36.6042 520.55 36.45 521.07 36.45C521.416 36.4487 521.758 36.5158 522.078 36.6475C522.398 36.7792 522.688 36.9729 522.933 37.2174C523.177 37.4618 523.371 37.7523 523.502 38.072C523.634 38.3917 523.701 38.7343 523.7 39.08V39.08Z" stroke="#282828" stroke-miterlimit="10"/>
<path d="M534.84 39.08C534.838 39.5978 534.683 40.1033 534.394 40.5329C534.104 40.9624 533.695 41.2967 533.216 41.4934C532.737 41.6902 532.21 41.7407 531.703 41.6384C531.195 41.5362 530.729 41.2859 530.364 40.9191C529.998 40.5523 529.75 40.0854 529.65 39.5775C529.549 39.0695 529.602 38.5432 529.8 38.0651C529.999 37.5869 530.335 37.1783 530.765 36.8909C531.196 36.6034 531.702 36.45 532.22 36.45C532.565 36.45 532.906 36.5181 533.225 36.6504C533.543 36.7827 533.833 36.9766 534.076 37.2209C534.32 37.4653 534.512 37.7553 534.643 38.0743C534.775 38.3933 534.841 38.7351 534.84 39.08V39.08Z" stroke="#282828" stroke-miterlimit="10"/>
<path d="M545.97 39.08C545.968 39.5978 545.813 40.1033 545.524 40.5329C545.234 40.9624 544.825 41.2967 544.346 41.4934C543.867 41.6902 543.34 41.7407 542.833 41.6384C542.325 41.5362 541.859 41.2859 541.494 40.9191C541.128 40.5523 540.88 40.0854 540.78 39.5775C540.679 39.0695 540.732 38.5432 540.93 38.0651C541.129 37.5869 541.465 37.1783 541.895 36.8909C542.326 36.6034 542.832 36.45 543.35 36.45C543.695 36.45 544.036 36.5181 544.355 36.6504C544.673 36.7827 544.963 36.9766 545.206 37.2209C545.45 37.4653 545.642 37.7553 545.773 38.0743C545.905 38.3933 545.971 38.7351 545.97 39.08V39.08Z" stroke="#282828" stroke-miterlimit="10"/>
<path d="M98.26 141.58H134.5V164.41H113.97L114.64 174.84L106.59 164.41H98.26V141.58Z" stroke="#282828" stroke-miterlimit="10"/>
<path d="M78.84 167.89H103.72V183.56H89.63L90.09 190.72L84.56 183.56H78.84V167.89Z" stroke="#282828" stroke-miterlimit="10"/>
<path d="M123.84 154.98C124.939 154.98 125.83 154.089 125.83 152.99C125.83 151.891 124.939 151 123.84 151C122.741 151 121.85 151.891 121.85 152.99C121.85 154.089 122.741 154.98 123.84 154.98Z" stroke="#282828" stroke-miterlimit="10"/>
<path d="M115.4 154.98C116.499 154.98 117.39 154.089 117.39 152.99C117.39 151.891 116.499 151 115.4 151C114.301 151 113.41 151.891 113.41 152.99C113.41 154.089 114.301 154.98 115.4 154.98Z" stroke="#282828" stroke-miterlimit="10"/>
<path d="M106.96 154.98C108.059 154.98 108.95 154.089 108.95 152.99C108.95 151.891 108.059 151 106.96 151C105.861 151 104.97 151.891 104.97 152.99C104.97 154.089 105.861 154.98 106.96 154.98Z" stroke="#282828" stroke-miterlimit="10"/>
<path d="M143.3 74.06C143.138 73.5632 143.064 73.0422 143.08 72.52C143.08 67.01 147.4 66.52 147.4 60.24C147.4 58.44 146.68 57.75 145.4 57.75C144.12 57.75 143.4 58.44 143.4 60.24V62.97H139.68V60.49C139.68 56.49 141.68 54.15 145.52 54.15C149.36 54.15 151.35 56.46 151.35 60.49C151.35 67.04 146.67 68.05 146.67 72.66C146.666 73.1303 146.713 73.5997 146.81 74.06H143.3ZM146.93 75.83V79.66H143.12V75.84L146.93 75.83Z" stroke="#282828" stroke-miterlimit="10"/>
<path d="M273.68 342.36C273.518 341.86 273.443 341.335 273.46 340.81C273.46 335.3 277.78 334.81 277.78 328.53C277.78 326.73 277.06 326.05 275.78 326.05C274.5 326.05 273.78 326.73 273.78 328.53V331.27H270.04V328.79C270.04 324.79 272.04 322.45 275.87 322.45C279.7 322.45 281.7 324.75 281.7 328.79C281.7 335.34 277.02 336.35 277.02 340.96C277.015 341.431 277.066 341.901 277.17 342.36H273.68ZM277.32 344.13V347.94H273.5V344.13H277.32Z" stroke="#282828" stroke-miterlimit="10"/>
<path d="M231.99 232.34H290.6V273.66H231.99V392.91H186.58V103.96H306.68V145.24H231.99V232.34Z" fill="#FFDF58" stroke="#282828" stroke-miterlimit="10"/>
<path d="M301.7 115.14V140.24H226.99V237.34H262.99" stroke="#282828" stroke-miterlimit="10"/>
<path d="M191.58 153.33V108.97H301.7V113" stroke="#282828" stroke-miterlimit="10"/>
<path d="M191.58 366.15V158.91" stroke="#282828" stroke-miterlimit="10"/>
<path d="M226.99 298.36V387.91H191.58V372.16" stroke="#282828" stroke-miterlimit="10"/>
<path d="M226.99 283.34V291.92" stroke="#282828" stroke-miterlimit="10"/>
<path d="M269 237.34H285.6V268.62H226.99V279.48" stroke="#282828" stroke-miterlimit="10"/>
<path d="M470.17 392.91H424.35L416.51 340.49H360.78L352.94 392.91H311.25L357.48 103.96H423.94L470.17 392.91ZM366.56 301.27H410.32L388.44 155.15L366.56 301.27Z" fill="#FFDF58" stroke="#282828" stroke-miterlimit="10"/>
<path d="M321.57 360.04L345.45 210.77M424.9 362.82L420.82 335.49H356.47L348.68 387.91H317.11L320.68 365.75M459.23 356.04L464.33 387.91H428.68L425.56 367.08M432.9 191.52L458.35 350.66M346.61 203.52L361.74 108.96H419.68L431.46 182.53M411.46 274.39L393.46 151.18H383.57L360.77 306.27H416.13L412.54 281.72" stroke="#282828" stroke-miterlimit="10"/>
<path d="M487.1 173.31C487.1 127.08 511.45 100.66 556.03 100.66C600.61 100.66 624.97 127.08 624.97 173.31V323.56C624.97 339.66 622.08 353.28 616.3 364.02C618.36 369.38 621.67 370.21 629.1 370.21H633.22V410.66H627.03C606.8 410.66 594.03 403.23 587.82 390.85C577.615 394.47 566.858 396.283 556.03 396.21C511.45 396.21 487.1 369.8 487.1 323.56V173.31ZM532.5 326.45C532.5 347.09 541.59 354.93 556.03 354.93C570.47 354.93 579.56 347.09 579.56 326.45V170.45C579.56 149.81 570.48 141.97 556.03 141.97C541.58 141.97 532.5 149.81 532.5 170.45V326.45Z" fill="#FFDF58" stroke="#282828" stroke-miterlimit="10"/>
<path d="M603.98 400.71C598.927 398.005 594.841 393.793 592.29 388.66L590.29 384.66L586.1 386.19C576.445 389.619 566.265 391.332 556.02 391.25C535.36 391.25 519.36 385.39 508.48 373.84C506.853 372.105 505.346 370.261 503.97 368.32M616.68 349.87C615.513 353.96 613.91 357.912 611.9 361.66L610.81 363.66L611.63 365.8C614.84 374.13 621.26 375.13 628.22 375.19V405.66H627.03C621.183 405.765 615.357 404.938 609.77 403.21M619.97 189.37V323.56C620.025 330.495 619.372 337.418 618.02 344.22M492.53 163.12C494.02 146.2 499.37 132.76 508.53 123.12C519.37 111.52 535.37 105.66 556.03 105.66C576.69 105.66 592.7 111.52 603.58 123.08C614.46 134.64 619.97 151.53 619.97 173.31V182.94M499.87 361.42C494.7 351.21 492.1 338.54 492.1 323.56V173.31C492.1 171.92 492.1 170.55 492.17 169.19M527.5 324.1V326.45C527.5 354.13 543.02 359.93 556.03 359.93C569.04 359.93 584.56 354.13 584.56 326.45V187.66M527.5 213.4V318.52M584.56 180.79V170.42C584.56 142.75 569.05 136.94 556.03 136.94C543.01 136.94 527.5 142.75 527.5 170.42V205.66" stroke="#282828" stroke-miterlimit="10"/>
<path d="M566.2 186.66C566.2 186.66 573.88 188.2 578.48 191.93C583.08 195.66 586.15 204.64 583.96 210.34C581.77 216.04 581.18 215.67 583.81 218.96C586.44 222.25 584.25 227.96 584.25 227.96L567.37 222.7C567.487 218.642 567.82 214.593 568.37 210.57C569.24 204.65 568.8 193.69 566.17 190.62L566.2 186.66Z" fill="#282828" stroke="#282828" stroke-linecap="round" stroke-linejoin="round"/>
<path d="M542.38 327.66L545.23 343.01C544.912 349.279 545.501 355.56 546.98 361.66C549.39 370.66 551.15 390.82 551.15 390.82C551.15 390.82 547.42 393.88 543.47 396.51C539.52 399.14 537.12 401.56 542.6 401.56C548.08 401.56 550.93 400.02 554.21 398.71C557.49 397.4 560.13 396.71 560.13 394.98C560.13 393.25 558.38 385.98 558.38 385.98C558.38 385.98 559.04 360.34 559.04 351.98C559.076 347.187 558.559 342.405 557.5 337.73V329.46L542.38 327.66Z" fill="white" stroke="#282828" stroke-linecap="round" stroke-linejoin="round"/>
<path d="M554.21 398.73C557.5 397.41 560.13 396.73 560.13 395C560.074 394.116 559.953 393.237 559.77 392.37C558.22 393.14 556.45 394.06 555.31 394.78C552.9 396.32 549.61 397.85 547.64 397.85C546.175 397.696 544.754 397.255 543.46 396.55C539.52 399.17 537.12 401.55 542.6 401.55C548.08 401.55 550.93 400.04 554.21 398.73Z" fill="#282828" stroke="#282828" stroke-linecap="round" stroke-linejoin="round"/>
<path d="M555.09 332.53L555.75 342.83C555.75 342.83 554.43 355.32 555.75 363.83C557.07 372.34 557.06 388.6 557.06 391.23C557.06 393.86 555.06 396.71 551.58 399.78C551.58 399.78 548.73 403.07 550.05 405.04C551.37 407.01 560.79 403.29 561.05 401.1C561.31 398.91 563.46 394.1 563.46 392.55V385.55C563.46 384.02 569.6 363.42 568.94 355.96C568.28 348.5 568.28 337.55 568.28 337.55L568.5 329.88C568.5 329.88 558.82 332.97 555.09 332.53Z" fill="white" stroke="#282828" stroke-linecap="round" stroke-linejoin="round"/>
<path d="M558.16 400.92C554.95 402.43 553.16 399.55 552.78 398.72C552.41 399.09 552.01 399.45 551.58 399.82C551.58 399.82 548.73 403.11 550.05 405.08C551.37 407.05 560.79 403.33 561.05 401.14C561.31 398.95 563.46 394.14 563.46 392.59C562.4 395.5 560.55 399.79 558.16 400.92Z" fill="#282828" stroke="#282828" stroke-linecap="round" stroke-linejoin="round"/>
<path d="M541.06 264.79C541.06 264.79 532.73 283.21 532.06 293.07C531.39 302.93 537.33 329.02 537.33 329.02C537.33 329.02 548.07 334.02 557.05 333.62C562.385 333.387 567.654 332.352 572.68 330.55C572.68 330.55 580.57 307.55 578.16 293.95C575.75 280.35 569.83 266.33 569.83 266.33L541.68 262.82L541.06 264.79Z" fill="#282828" stroke="#282828" stroke-linecap="round" stroke-linejoin="round"/>
<path d="M554 218.32C554 218.32 557.72 216.13 560.57 216.13H564.96C564.96 216.13 566.96 224.02 566.96 224.9C566.96 225.78 558.63 266.11 558.63 266.11L542.85 264.57C542.85 264.57 542.85 239.15 545.04 231.47C547.23 223.79 554 218.32 554 218.32Z" fill="white" stroke="#282828" stroke-linecap="round" stroke-linejoin="round"/>
<path d="M541.68 186.9C541.68 186.9 540.15 196.11 542.12 202.47C544.09 208.83 549.57 215.62 551.77 215.84C553.397 215.845 554.993 215.387 556.37 214.52L555.56 217.45L553.81 227.75L561.7 228.41C561.7 228.41 564.99 216.79 564.99 216.13C564.99 215.47 564.92 213.87 564.92 213.87L564.04 205.1C565.248 203.115 566.347 201.065 567.33 198.96C567.99 197.21 566.45 194.36 566.45 194.36C566.45 194.36 568.03 184.88 562.73 180.11C556.15 174.19 544.73 179.45 541.9 182.3C539.07 185.15 541.68 186.9 541.68 186.9Z" fill="white" stroke="#282828" stroke-linecap="round" stroke-linejoin="round"/>
<path d="M556.34 214.53L559.35 213.64L555.03 221.25L556.34 214.53Z" fill="#282828" stroke="#282828" stroke-linecap="round" stroke-linejoin="round"/>
<path d="M562.68 180.11C555.68 174.19 544.68 179.45 541.85 182.3C539.02 185.15 541.63 186.9 541.63 186.9C541.63 186.9 543.17 185.37 547.11 186.9C551.05 188.43 554.11 196.33 556.98 197.21C558.78 197.752 560.61 198.19 562.46 198.52C562.46 198.52 562.46 195.23 563.99 194.79C564.773 194.549 565.582 194.404 566.4 194.36C566.4 194.36 568.15 184.71 562.68 180.11Z" fill="#282828" stroke="#282828" stroke-linecap="round" stroke-linejoin="round"/>
<path d="M546.7 196.77L548.45 199.4L547.57 206.41L550.42 206.85" stroke="#282828" stroke-linecap="round" stroke-linejoin="round"/>
<path d="M549.54 209.26C550.136 209.373 550.75 209.332 551.326 209.141C551.902 208.95 552.419 208.616 552.83 208.17" stroke="#282828" stroke-linecap="round" stroke-linejoin="round"/>
<path d="M543.41 198.08L544.06 201.15C545.176 201.277 546.306 201.126 547.35 200.71" stroke="#282828" stroke-linecap="round" stroke-linejoin="round"/>
<path d="M552.39 196.77L552.83 200.06C552.83 200.06 555.9 200.93 557 200.27" stroke="#282828" stroke-linecap="round" stroke-linejoin="round"/>
<path d="M542.53 195.89C543.624 195.375 544.853 195.221 546.04 195.45" stroke="#282828" stroke-linecap="round" stroke-linejoin="round"/>
<path d="M550.68 194.58C550.68 194.58 551.56 193.7 553.97 194.14" stroke="#282828" stroke-linecap="round" stroke-linejoin="round"/>
<path d="M555.53 217.45C555.53 217.45 545.88 222.05 543.69 222.45C541.5 222.85 537.55 224.64 537.77 226.17C537.99 227.7 536.9 251.38 537.55 252.92C538.2 254.46 537.55 266.73 537.12 268.26C536.69 269.79 529.68 289.78 529.68 289.78C529.68 289.78 531.22 291.54 534.51 290.22C537.8 288.9 542.4 274.88 543.27 269.4C544.14 263.92 550.07 239.8 551.6 234.32C553.13 228.84 555.53 217.45 555.53 217.45Z" fill="white" stroke="#282828" stroke-linecap="round" stroke-linejoin="round"/>
<path d="M564.96 216.13C564.96 216.13 560.57 233.01 558.38 239.8C556.19 246.59 554 250.55 554.38 255.8C554.76 261.05 554.16 287.58 558.11 291.31C562.06 295.04 567.11 297.44 572.11 297.44C575.593 297.352 579.052 296.838 582.41 295.91C582.41 295.91 576.27 262.37 576.27 261.5C576.27 260.63 585.92 229.71 585.7 227.08C585.48 224.45 564.96 216.13 564.96 216.13Z" fill="white" stroke="#282828" stroke-linecap="round" stroke-linejoin="round"/>
<path d="M546.98 236.95C547.009 240.965 547.307 244.974 547.87 248.95C549.42 242.59 550.87 236.69 551.58 234.3C553.12 228.82 555.58 217.43 555.58 217.43C555.58 217.43 553.17 218.58 550.48 219.78C549.24 223.52 546.98 231.3 546.98 236.95Z" fill="#FFDF58" stroke="#282828" stroke-linecap="round" stroke-linejoin="round"/>
<path d="M564.96 216.13C564.96 216.13 560.57 233.01 558.38 239.8C557.2 243.44 556.03 246.27 555.26 248.91C558.443 246.408 561.199 243.405 563.42 240.02C567.02 234.63 569.29 222.45 569.98 218.25C567.09 216.99 564.96 216.13 564.96 216.13Z" fill="#FFDF58" stroke="#282828" stroke-linecap="round" stroke-linejoin="round"/>
<path d="M525.68 263.04L523.49 269.4L521.29 261.29C522.113 261.116 522.969 261.189 523.75 261.5C524.531 261.812 525.203 262.348 525.68 263.04Z" fill="#282828" stroke="#282828" stroke-linecap="round" stroke-linejoin="round"/>
<path d="M510.13 238.24L522.62 260.15L538.84 261.03L528.1 238.24H510.13Z" fill="#282828" stroke="#282828" stroke-linecap="round" stroke-linejoin="round"/>
<path d="M521.33 261.29C521.33 261.29 515.2 252.29 514.33 250.11C513.567 248.299 513.121 246.372 513.01 244.41C513.01 243.09 513.45 242.65 514.11 244.19C514.77 245.73 516.11 249.01 516.11 249.01L517.21 242.43C517.21 242.43 517.87 241.34 518.52 242.65C519.17 243.96 518.52 249.01 518.52 249.01L520.28 241.34C520.28 241.34 521.15 239.8 521.81 240.9C522.47 242 521.37 248.13 521.37 248.13L523.37 243.53C523.681 243.536 523.981 243.648 524.22 243.848C524.458 244.048 524.621 244.324 524.68 244.63C524.9 245.72 523.15 251.63 523.15 251.63L526 248.78C526 248.78 527.09 248.34 526.65 249.66C525.847 251.278 524.897 252.818 523.81 254.26C524.346 255.542 524.784 256.862 525.12 258.21C524.936 259.049 524.64 259.86 524.24 260.62L525.78 263.03L524.9 264.78L521.33 261.29Z" fill="white" stroke="#282828" stroke-linecap="round" stroke-linejoin="round"/>
<path d="M537.12 268.3C537.466 265.945 537.667 263.57 537.72 261.19L525.5 262.19L523.5 269.43L536.5 269.98C536.86 269.11 537.05 268.52 537.12 268.3Z" fill="white" stroke="#282828" stroke-linecap="round" stroke-linejoin="round"/>
<path d="M555.75 254.93C555.75 254.93 548.66 249.35 547.23 248.12C545.3 246.47 541.94 247.04 541.94 247.04C541.94 247.04 536.68 250.55 535.8 251.42C534.92 252.29 534.92 253.18 535.8 252.96C537.393 252.193 538.931 251.314 540.4 250.33L540.62 253.61L545.23 254.93L546.54 253.61C547.189 254.119 547.934 254.493 548.73 254.71C549.47 254.826 550.227 254.75 550.93 254.49L555.09 258.22L555.75 254.93Z" fill="white" stroke="#282828" stroke-linecap="round" stroke-linejoin="round"/>
<path d="M578.33 223.14C578.33 223.14 586.88 224.9 587.97 227.75C589.06 230.6 588.19 275.1 587.31 276.41C586.43 277.72 552.68 260.66 552.68 260.66L555.53 254.08L575.04 259.34L573.68 237.83" fill="white"/>
<path d="M578.33 223.14C578.33 223.14 586.88 224.9 587.97 227.75C589.06 230.6 588.19 275.1 587.31 276.41C586.43 277.72 552.68 260.66 552.68 260.66L555.53 254.08L575.04 259.34L573.68 237.83" stroke="#282828" stroke-linecap="round" stroke-linejoin="round"/>
<path d="M541.99 253.82C541.99 253.82 542.27 248.58 542.45 247.94" stroke="#282828" stroke-linecap="round" stroke-linejoin="round"/>
<path d="M543.74 254.1C543.74 254.1 544.2 249.23 544.38 248.4" stroke="#282828" stroke-linecap="round" stroke-linejoin="round"/>
<path d="M546.54 253.62L546.5 252.35L545.39 252.17" stroke="#282828" stroke-linecap="round" stroke-linejoin="round"/>
<path d="M358.96 394.85C358.96 394.85 357.65 399.09 358.67 401.13C359.69 403.17 361.89 403.62 364.95 403.33C368.01 403.04 379.86 400.4 381.47 400.11C382.661 399.868 383.831 399.534 384.97 399.11C381.097 397.834 377.145 396.808 373.14 396.04C367.88 395.16 359.99 393.7 359.99 393.7L358.96 394.85Z" fill="white" stroke="#282828" stroke-linecap="round" stroke-linejoin="round"/>
<path d="M359.99 393.66L358.99 394.83C358.99 394.83 357.68 399.07 358.7 401.11C359.47 402.65 360.89 403.28 362.86 403.37C361.863 402.44 361.134 401.258 360.75 399.95C360.467 398.938 360.422 397.875 360.618 396.843C360.814 395.811 361.246 394.838 361.88 394L359.99 393.66Z" fill="white" stroke="#282828" stroke-linecap="round" stroke-linejoin="round"/>
<path d="M369.68 361.09L364.42 377.46L347.32 376.15C347.32 376.15 357.7 385.94 365.32 390.47C372.94 395 386.65 399.23 395.27 397.19C403.89 395.15 424.68 375.85 424.68 375.85L406.42 376.15L402.68 360.66L369.68 361.09Z" fill="#282828" stroke="#282828" stroke-linecap="round" stroke-linejoin="round"/>
<path d="M384.97 281.23C384.97 281.23 374.23 283.23 372.92 286.49C371.61 289.75 372.7 297.49 373.58 302.49C374.46 307.49 376.64 308.19 372.92 311.92C369.2 315.65 372.7 319.59 376.21 321.56C379.72 323.53 384.54 320.91 385.63 318.71" fill="#282828"/>
<path d="M384.97 281.23C384.97 281.23 374.23 283.23 372.92 286.49C371.61 289.75 372.7 297.49 373.58 302.49C374.46 307.49 376.64 308.19 372.92 311.92C369.2 315.65 372.7 319.59 376.21 321.56C379.72 323.53 384.54 320.91 385.63 318.71" stroke="#282828" stroke-linecap="round" stroke-linejoin="round"/>
<path d="M356.92 343.26C356.92 343.26 351.22 359.05 351.8 360.36C352.38 361.67 366.85 377.17 367.29 377.17C367.73 377.17 370.07 378.63 370.8 378.63C371.242 378.674 371.689 378.623 372.11 378.48C372.934 378.339 373.765 378.242 374.6 378.19L376.21 379.65L381.47 379.07C381.47 379.07 378.11 374.54 376.64 373.95C375.17 373.36 368.9 372.64 368.9 372.64L360.9 357.73L364.99 348.38L356.92 343.26Z" fill="white" stroke="#282828" stroke-linecap="round" stroke-linejoin="round"/>
<path d="M376.21 322.37C376.21 322.37 364.66 323.24 363.49 323.54C363.04 323.608 362.611 323.775 362.233 324.027C361.855 324.279 361.536 324.611 361.3 325C360.86 325.73 353.3 342.39 353.3 342.39L365.68 349.84L367.29 345.75L369.68 361.09H402.85L403.73 346.19L406.95 350.72L420.39 341.07C420.39 341.07 407.39 322.81 403.73 322.37C400.07 321.93 376.21 322.37 376.21 322.37Z" fill="white" stroke="#282828" stroke-linecap="round" stroke-linejoin="round"/>
<path d="M380.88 314.91C380.88 314.91 380.15 318.57 379.71 319.91C379.27 321.25 376.21 322.4 376.21 322.4C376.21 322.4 378.84 329.56 385.85 331.17C390.99 332.34 394.77 327.51 395.5 326.49C396.23 325.47 396.96 321.81 396.96 321.81C396.96 321.81 393.74 319.04 393.6 318.45C393.46 317.86 393.15 315.45 393.15 315.45C393.15 315.45 385.27 316.96 380.88 314.91Z" fill="white" stroke="#282828" stroke-linecap="round" stroke-linejoin="round"/>
<path d="M384.1 289.12L375.55 300.74C375.55 300.74 372.04 295.92 372.04 300.52C372.04 305.12 374.04 306.22 374.67 306.44C375.3 306.66 376.21 306.88 376.21 306.88C377.125 310.068 378.776 312.996 381.03 315.43C384.54 318.93 388.03 319.59 391.11 317.84C394.19 316.09 396.37 310.6 396.37 310.6C396.37 310.6 398.57 303.37 398.13 299.86C397.69 296.35 387.6 287.81 384.1 289.12Z" fill="white" stroke="#282828" stroke-linecap="round" stroke-linejoin="round"/>
<path d="M383.27 304.27C383.38 304.97 383.08 305.6 382.6 305.67C382.12 305.74 381.6 305.24 381.53 304.53C381.46 303.82 381.73 303.2 382.21 303.13C382.69 303.06 383.17 303.56 383.27 304.27Z" fill="#282828"/>
<path d="M389.87 304.27C389.77 304.97 390.07 305.6 390.55 305.67C391.03 305.74 391.55 305.24 391.62 304.53C391.69 303.82 391.42 303.2 390.94 303.13C390.46 303.06 389.98 303.56 389.87 304.27Z" fill="#282828"/>
<path d="M385.37 310.77C385.415 310.929 385.491 311.078 385.594 311.208C385.697 311.337 385.825 311.445 385.971 311.524C386.116 311.603 386.276 311.653 386.441 311.669C386.605 311.686 386.772 311.669 386.93 311.62C387.266 311.573 387.581 311.426 387.832 311.197C388.084 310.969 388.261 310.67 388.34 310.34" stroke="#282828" stroke-linecap="round" stroke-linejoin="round"/>
<path d="M384.24 312.89C384.24 312.89 387.35 314.3 389.33 312.61" stroke="#282828" stroke-linecap="round" stroke-linejoin="round"/>
<path d="M379.86 302.14C379.86 302.14 380.42 300.3 383.96 301.01" stroke="#282828" stroke-linecap="round" stroke-linejoin="round"/>
<path d="M388.34 301.15C388.76 300.951 389.22 300.847 389.685 300.847C390.15 300.847 390.61 300.951 391.03 301.15" stroke="#282828" stroke-linecap="round" stroke-linejoin="round"/>
<path d="M383.88 288.24C383.88 288.24 394.88 307.75 395.5 310.6C396.12 313.45 391.99 316.96 394.18 319.6C396.37 322.24 399.66 325.52 399.66 325.52C399.66 325.52 394.66 327.52 396.37 329.03C398.08 330.54 407.11 328.15 409.74 325.52C412.37 322.89 408.65 318.94 407.74 316.52C406.83 314.1 409.93 308.63 409.06 301.4C408.19 294.17 398.75 282.54 393.27 280.57C387.79 278.6 383.41 281.01 381.66 283.2" fill="#282828"/>
<path d="M383.88 288.24C383.88 288.24 394.88 307.75 395.5 310.6C396.12 313.45 391.99 316.96 394.18 319.6C396.37 322.24 399.66 325.52 399.66 325.52C399.66 325.52 394.66 327.52 396.37 329.03C398.08 330.54 407.11 328.15 409.74 325.52C412.37 322.89 408.65 318.94 407.74 316.52C406.83 314.1 409.93 308.63 409.06 301.4C408.19 294.17 398.75 282.54 393.27 280.57C387.79 278.6 383.41 281.01 381.66 283.2" stroke="#282828" stroke-linecap="round" stroke-linejoin="round"/>
<path d="M382.4 317.13C382.4 317.13 380.85 319.4 381.98 320.13C383.11 320.86 384.38 321.69 384.38 321.69C384.38 321.69 383.96 325.69 384.81 326.92C385.66 328.15 389.33 329.92 389.33 329.92C389.33 329.92 395.98 338.55 400.65 343.36C405.32 348.17 414.51 357.65 416.78 357.65C419.05 357.65 422.15 352.84 421.87 349.02C421.59 345.2 410.41 340.25 408.29 338.55C406.17 336.85 393.15 328.55 393.15 328.55C393.15 328.55 392.59 321.9 392.73 320.49C392.87 319.08 392.59 316.49 393.15 315.49C393.71 314.49 392.02 315.07 391.15 316.49C390.685 317.165 390.393 317.945 390.3 318.76L382.4 317.13Z" fill="white" stroke="#282828" stroke-linecap="round" stroke-linejoin="round"/>
<path d="M408.5 357.88H363.64V384.92H408.5V357.88Z" fill="#B0B0B0" stroke="#282828" stroke-linecap="round" stroke-linejoin="round"/>
<path d="M386.44 392.95C386.44 392.95 408.06 384.04 413.91 379.51C419.76 374.98 425.75 372.78 429.25 373.81C432.75 374.84 434.81 381.55 433.2 385.94C431.59 390.33 419.02 392.37 413.62 394.27C408.22 396.17 391.68 398.94 391.68 398.94L384.08 394.7L386.44 392.95Z" fill="#282828" stroke="#282828" stroke-linecap="round" stroke-linejoin="round"/>
<path d="M387.9 393.24C387.9 393.24 393.6 394.56 398.71 396.02C403.82 397.48 404.71 397.63 404.71 397.63C404.71 397.63 416.99 395.14 418.89 394.7C420.79 394.26 424.73 395.87 425.17 398.65C425.61 401.43 424.59 403.18 423.17 403.91C421.75 404.64 419.22 404.64 417.47 404.64C415.72 404.64 405.92 403.76 404.47 403.64C403.02 403.52 386.64 400.42 386.64 400.42L387.9 393.24Z" fill="white" stroke="#282828" stroke-linecap="round" stroke-linejoin="round"/>
<path d="M404.31 403.66H404.41C405.87 403.8 415.66 404.66 417.41 404.66C419.16 404.66 421.64 404.66 423.11 403.93C424.58 403.2 425.59 401.45 425.11 398.67C424.63 395.89 420.73 394.29 418.83 394.72C416.93 395.15 404.68 397.66 404.68 397.66C404.68 397.66 405.91 401.38 404.31 403.66Z" fill="white" stroke="#282828" stroke-linecap="round" stroke-linejoin="round"/>
<path d="M386.44 392.95C379.717 390.708 373.288 387.666 367.29 383.89C357.65 377.75 344.93 372.89 343.18 372.78C341.43 372.67 336.9 376.88 338.06 381.84C339.22 386.8 349.06 392.37 350.92 393.1C352.78 393.83 378.98 400.84 384.24 400.84L386.44 392.95Z" fill="#282828" stroke="#282828" stroke-linecap="round" stroke-linejoin="round"/>
<path d="M382.93 391.34C382.93 391.34 380.59 399.23 380.44 399.82C380.29 400.41 380.01 401.13 381.17 401.57C382.646 402.005 384.172 402.25 385.71 402.3C386.58 402.3 387.17 400.3 387.46 399.53C388.094 397.479 388.533 395.373 388.77 393.24C388.77 391.93 386.29 391.49 385.41 391.24C384.586 391.087 383.739 391.121 382.93 391.34Z" fill="#D9D9D9" stroke="#282828" stroke-linecap="round" stroke-linejoin="round"/>
<path d="M287.55 95.45C287.55 95.45 288.06 95.96 290.26 96.13C292.46 96.3 294.84 96.98 297.38 96.3C299.92 95.62 301.44 95.3 300.6 96.47C299.76 97.64 293.82 100.87 292.97 101.21C292.12 101.55 289.42 101.72 288.74 102.4C288.06 103.08 287.55 104.94 285.86 105.11C284.17 105.28 280.95 99.18 280.95 99.18L286.2 94.77L287.55 95.45Z" fill="#B0B0B0" stroke="#282828" stroke-linecap="round" stroke-linejoin="round"/>
<path d="M234.87 87.49C234.87 87.49 248.93 75.49 257.74 70.21C266.55 64.93 268.41 63.44 269.6 63.77C270.79 64.1 289.6 94.61 289.6 94.61L279.77 102.61L267.24 78.21C267.24 78.21 249.45 95.32 244.88 98.37C240.31 101.42 231.15 92.61 230.65 91.26C230.15 89.91 234.87 87.49 234.87 87.49Z" fill="#282828" stroke="#282828" stroke-linecap="round" stroke-linejoin="round"/>
<path d="M259.87 105.96L283.97 106.07L278.21 100.92L256.69 100.31L259.87 105.96Z" fill="white" stroke="#282828" stroke-linecap="round" stroke-linejoin="round"/>
<path d="M283.97 106.07L298.32 87.35L289.84 84.73L278.21 100.92L283.97 106.07Z" fill="white" stroke="#282828" stroke-linecap="round" stroke-linejoin="round"/>
<path d="M245.37 60.73L253.17 79.53L265.36 96.13C265.36 96.13 269.77 96.3 270.61 96.47C271.45 96.64 273.83 96.81 274.85 97.99C275.688 99.2973 276.316 100.728 276.71 102.23L275.71 102.4L273.71 100.2L269.99 99.35C269.99 99.35 265.58 99.01 264.57 98.5C263.56 97.99 258.64 94.27 258.64 94.27L242.37 73.94L239.83 66.82L245.37 60.73Z" fill="#B0B0B0" stroke="#282828" stroke-linecap="round" stroke-linejoin="round"/>
<path d="M264.51 93.98L260.79 96.98L242.26 77.72L240.35 67.67L246.73 61.58L253.27 77.24L264.51 93.98Z" fill="#FFDF58" stroke="#282828" stroke-linecap="round" stroke-linejoin="round"/>
<path d="M237.75 154.91C237.75 154.91 231.14 165.07 230.98 166.43C230.893 167.068 231.031 167.717 231.37 168.265C231.71 168.812 232.229 169.224 232.84 169.43C234.19 169.94 236.9 170.95 238.6 171.8C240.3 172.65 244.02 174.68 246.73 174.68C249.44 174.68 250.12 173.83 249.27 172.99C248.42 172.15 243.34 167.73 242.83 166.72C242.064 165.025 241.441 163.269 240.97 161.47C240.97 160.96 242.49 156.22 242.49 156.22L237.75 154.91Z" fill="#B0B0B0" stroke="#282828" stroke-linecap="round" stroke-linejoin="round"/>
<path d="M213.02 84.66C210.174 88.4447 208.844 93.1557 209.29 97.87C210.29 106.51 217.42 108.72 223.86 110.58C230.3 112.44 254.69 118.88 254.69 118.88C254.69 118.88 247.75 126.16 245.2 132.26C242.65 138.36 235.89 155.98 235.89 155.98L248.25 161.66L264.18 129.16C264.18 129.16 268.07 122.22 268.75 118.66C269.43 115.1 268.41 112.9 268.07 112.39C267.73 111.88 246.73 97.66 242.83 95.11C240.594 93.6297 238.211 92.3832 235.72 91.39L213.02 84.66Z" fill="#282828" stroke="#282828" stroke-linecap="round" stroke-linejoin="round"/>
<path d="M244.68 51.24C244.68 51.24 241.97 42.09 237.68 40.91C233.39 39.73 228.53 43.91 224.68 48.53C220.83 53.15 221.46 63.94 221.46 66.99C221.46 70.04 212.82 83.43 211.97 86.3C211.97 86.3 215.53 88.85 222.48 90.37C227.106 91.3036 231.823 91.7028 236.54 91.56C236.54 91.56 237.89 81.9 238.23 78.85C238.57 75.8 240.94 71.4 242.8 70.21C244.66 69.02 246.53 65.64 246.7 61.57C246.87 57.5 244.68 51.24 244.68 51.24Z" fill="#FFDF58" stroke="#282828" stroke-linecap="round" stroke-linejoin="round"/>
<path d="M258.59 95.96L262.65 97.82C262.65 97.82 271.12 98.33 271.8 98.33C272.48 98.33 274 103.24 274 103.24C274 103.24 273.49 103.75 272.82 103.08C272.15 102.41 271.46 101.55 271.46 101.55C271.46 101.55 267.23 101.89 265.53 101.89C263.83 101.89 260.79 99.89 260.79 99.89L256.68 98.16L258.59 95.96Z" fill="#B0B0B0" stroke="#282828" stroke-linecap="round" stroke-linejoin="round"/>
<path d="M228.26 52.59C228.26 52.59 233.52 70.72 235.38 75.29C237.24 79.86 241.99 85.46 243.68 87.66C245.37 89.86 258.08 99.66 258.08 99.66L260.79 96.95L247.29 76.73C247.29 76.73 240.46 49.73 240.63 48.84C240.8 47.95 238.63 45.62 237.07 45.28" fill="#FFDF58"/>
<path d="M228.26 52.59C228.26 52.59 233.52 70.72 235.38 75.29C237.24 79.86 241.99 85.46 243.68 87.66C245.37 89.86 258.08 99.66 258.08 99.66L260.79 96.95L247.29 76.73C247.29 76.73 240.46 49.73 240.63 48.84C240.8 47.95 238.63 45.62 237.07 45.28" stroke="#282828" stroke-linecap="round" stroke-linejoin="round"/>
<path d="M268.75 22.95C268.75 22.95 269.26 29.05 268.41 31.08C267.56 33.11 263.68 34.3 263.68 35.99C263.68 37.68 263.85 39.38 263 40.06C262.15 40.74 260.63 40.06 260.63 40.06C260.329 41.0077 259.738 41.8368 258.94 42.43C257.58 43.43 257.82 43.43 257.82 43.43C256.692 44.5057 255.233 45.1683 253.68 45.31C251.48 45.31 249.79 42.26 249.28 41.92C248.77 41.58 247.39 42.54 246.06 43.45C244.31 44.64 243.01 51.07 243.01 51.07C243.01 51.07 238.1 41.75 237.59 41.58C237.08 41.41 233.98 41.2 233.98 41.2C233.98 41.2 238.98 38.7 239.62 36.67C240.26 34.64 239.62 31.42 239.62 30.74C239.62 30.06 239.96 23.12 242.84 19.56C245.72 16 257.91 14.99 262.48 14.66C267.05 14.33 268.75 22.95 268.75 22.95Z" fill="white" stroke="#282828" stroke-linecap="round" stroke-linejoin="round"/>
<path d="M268.75 22.95C268.75 22.95 267.06 21.95 266.75 24.81C266.44 27.67 266.92 27.86 264.88 28.03C262.84 28.2 262 28.71 262 29.9C262 31.09 260.48 31.59 259.29 31.59C258.1 31.59 257.09 29.9 256.41 31.59C255.73 33.28 253.41 34.13 251.84 34.13C250.27 34.13 250.15 35.13 247.44 35.66C244.73 36.19 244.22 33.28 244.22 33.28C242.763 33.5856 241.291 33.8126 239.81 33.96C238.81 33.96 238.97 29.73 238.97 29.73C237.685 29.9718 236.378 30.0824 235.07 30.06C234.07 29.9 233.21 27.52 233.21 26.68C233.21 25.84 231.34 24.47 231.34 23.29V21.29C231.34 21.29 230.84 18.41 231.17 17.73C231.5 17.05 233.68 15.66 233.68 14.82C233.68 13.98 233 10.08 234.18 8.55C235.36 7.02 236.56 5.55 237.74 5.55C238.92 5.55 239.27 3.35 241.13 3.01C242.413 2.74844 243.721 2.63436 245.03 2.67C246.38 2.67 247.23 0.979998 248.75 0.669998C250.752 0.507245 252.767 0.738262 254.68 1.35C255.36 1.69 255.87 1.69 257.22 1.18C258.101 0.989662 259.014 0.996754 259.892 1.20077C260.771 1.40478 261.593 1.80066 262.3 2.36C263.332 3.30703 264.638 3.90224 266.03 4.06C266.88 4.06 267.72 3.55 268.91 5.75C270.1 7.95 272.13 8.29 273.31 9.31C273.804 9.74589 274.175 10.3047 274.384 10.9299C274.593 11.5551 274.633 12.2244 274.5 12.87C274.33 14.05 275.18 15.07 275.86 16.42C276.171 16.9689 276.32 17.5946 276.29 18.2246C276.259 18.8546 276.052 19.4632 275.69 19.98C275.01 20.83 275.52 22.52 275.69 23.2C275.86 23.88 273.99 25.2 272.47 25.74C270.95 26.28 269.43 27.02 268.75 22.95Z" fill="#282828" stroke="#282828" stroke-linecap="round" stroke-linejoin="round"/>
<path d="M263.2 34.76C262.83 35.42 262.3 35.83 262.01 35.67C261.72 35.51 261.77 34.84 262.13 34.18C262.49 33.52 263.02 33.11 263.32 33.27C263.62 33.43 263.56 34.1 263.2 34.76Z" fill="#282828"/>
<path d="M262.36 31.13C262.36 31.13 264.18 30.22 265.24 32.95" stroke="#282828" stroke-linecap="round" stroke-linejoin="round"/>
<path d="M130.68 227.86C130.68 227.86 133.74 232.66 134.61 234.12C135.48 235.58 135.34 238.8 135.34 238.8L138.85 242.3L134.68 245.52C134.68 245.52 130.29 242.6 129.42 242.16C128.54 241.764 127.601 241.517 126.64 241.43C126.2 241.43 122.11 236.31 122.11 236.31L119.68 234.66L121.12 230.66L127.55 232.56L130.68 227.86Z" fill="#CFCFCF" stroke="#282828" stroke-linecap="round" stroke-linejoin="round"/>
<path d="M115.71 228.5L130.18 242.31L135.44 237.7L122.51 225.43L115.71 228.5Z" fill="#282828" stroke="#282828" stroke-linecap="round" stroke-linejoin="round"/>
<path d="M128.57 227.29C128.329 227.304 128.099 227.398 127.918 227.557C127.737 227.717 127.614 227.933 127.57 228.17C127.27 229.77 126.77 233.06 127.74 233.34C127.955 233.429 128.189 233.464 128.421 233.443C128.653 233.422 128.877 233.346 129.073 233.22C129.269 233.095 129.432 232.924 129.548 232.722C129.664 232.52 129.73 232.293 129.74 232.06C129.92 231.14 131.02 228.59 130.65 227.86C130.34 227.28 129.6 227.27 128.57 227.29Z" fill="#CFCFCF" stroke="#282828" stroke-linecap="round" stroke-linejoin="round"/>
<path d="M118.78 230.47C118.78 230.47 116.78 234.19 118.34 235.29C119.9 236.39 119.88 234.19 120.34 232.88C120.8 231.57 120.75 229.81 118.78 230.47Z" fill="#CFCFCF" stroke="#282828" stroke-linecap="round" stroke-linejoin="round"/>
<path d="M122.51 234.19C122.51 234.19 120.75 237.7 121.41 238.8C122.07 239.9 122.95 238.8 123.41 237.7C123.79 237.028 124.016 236.28 124.07 235.51C124.08 233.59 122.51 234.19 122.51 234.19Z" fill="#CFCFCF" stroke="#282828" stroke-linecap="round" stroke-linejoin="round"/>
<path d="M124.33 235.76C124.33 235.76 122.58 239.26 123.23 240.36C123.88 241.46 124.77 240.36 125.23 239.26C125.613 238.59 125.835 237.84 125.88 237.07C125.91 235.15 124.33 235.76 124.33 235.76Z" fill="#CFCFCF" stroke="#282828" stroke-linecap="round" stroke-linejoin="round"/>
<path d="M126.41 237.49C126.41 237.49 124.66 241 125.32 242.1C125.98 243.2 126.85 242.1 127.32 241C127.7 240.328 127.926 239.58 127.98 238.81C127.99 236.89 126.41 237.49 126.41 237.49Z" fill="#CFCFCF" stroke="#282828" stroke-linecap="round" stroke-linejoin="round"/>
<path d="M138.51 240.26L132.23 246.69L148.89 260.28L150.49 249.03L138.51 240.26Z" fill="#FFDF58" stroke="#282828" stroke-linecap="round" stroke-linejoin="round"/>
<path d="M146.62 268.07C146.62 268.07 143.46 279.7 143.62 281.48C143.74 282.526 143.806 283.577 143.82 284.63C143.82 284.63 134.94 295.48 130.41 305.14C125.88 314.8 125.48 320.33 126.86 321.31C128.24 322.29 146.97 330.58 148.94 330.98L150.94 331.37L166.94 336.89L168.52 338.67L171.67 337.67C173.05 336.88 173.84 331.56 174.24 329.39C174.64 327.22 175.62 326.23 174.63 326.04C173.713 325.932 172.787 325.932 171.87 326.04C171.87 326.04 172.46 324.85 171.48 324.85H168.68C168.68 324.85 155.68 319.53 153.5 318.35C151.32 317.17 145.81 314.21 145.81 314.21L158.68 304.95C158.68 304.95 174.26 295.88 176.43 292.13C178.6 288.38 179.78 281.28 179.78 278.32C179.78 275.36 158.28 265.32 154.54 265.32C150.8 265.32 146.81 266.1 146.62 268.07Z" fill="#282828" stroke="#282828" stroke-linecap="round" stroke-linejoin="round"/>
<path d="M174.62 326.05C174.62 326.05 185.62 326.44 187.24 327.23C188.86 328.02 188.82 330.78 188.82 332.75C188.82 334.72 187.24 339.26 187.64 341.43C188.04 343.6 188.11 346.18 188.42 349.32C189.02 355.23 187.29 355.85 186.26 355.63C182.51 354.84 182.11 350.3 180.34 345.97C178.57 341.64 177.58 339.26 177.58 339.26L171.68 337.66C171.68 337.66 172.85 329.01 174.62 326.05Z" fill="white" stroke="#282828" stroke-linecap="round" stroke-linejoin="round"/>
<path d="M187.24 327.23C186.333 326.935 185.392 326.753 184.44 326.69C185.231 329.7 185.641 332.798 185.66 335.91C185.66 342.02 186.85 349.12 186.26 353.66C186.16 354.39 186.06 355 185.96 355.54C186.058 355.576 186.158 355.606 186.26 355.63C187.26 355.85 189.02 355.23 188.42 349.32C188.11 346.18 188.03 343.6 187.64 341.43C187.25 339.26 188.82 334.72 188.82 332.75C188.82 330.78 188.82 328.02 187.24 327.23Z" fill="white" stroke="#282828" stroke-linecap="round" stroke-linejoin="round"/>
<path d="M149.03 284.66C149.03 284.66 151.44 299.57 150.56 308.33C149.68 317.09 150.35 336.61 151.22 342.09C152.09 347.57 151.44 364.01 151.44 366.86C151.468 368.254 151.395 369.647 151.22 371.03C151.22 371.03 148.81 370.81 149.03 372.12C149.167 372.99 149.24 373.869 149.25 374.75C150.781 375.97 152.586 376.798 154.51 377.16C157.8 377.82 161.31 378.48 161.96 377.6C162.61 376.72 162.4 373.88 162.4 373.88C162.759 373.545 163.043 373.137 163.233 372.683C163.422 372.23 163.513 371.741 163.5 371.25V368.56C163.5 368.56 166.57 355.85 166.35 348.18C166.13 340.51 164.59 336.12 165.03 334.18C165.47 332.24 175.33 302.18 175.33 302.18C175.33 302.18 178.4 295.6 179.06 291.44C179.525 287.82 178.681 284.152 176.68 281.1C175.36 279.35 155.2 273.87 155.2 273.87" fill="#282828"/>
<path d="M149.03 284.66C149.03 284.66 151.44 299.57 150.56 308.33C149.68 317.09 150.35 336.61 151.22 342.09C152.09 347.57 151.44 364.01 151.44 366.86C151.468 368.254 151.395 369.647 151.22 371.03C151.22 371.03 148.81 370.81 149.03 372.12C149.167 372.99 149.24 373.869 149.25 374.75C150.781 375.97 152.586 376.798 154.51 377.16C157.8 377.82 161.31 378.48 161.96 377.6C162.61 376.72 162.4 373.88 162.4 373.88C162.759 373.545 163.043 373.137 163.233 372.683C163.422 372.23 163.513 371.741 163.5 371.25V368.56C163.5 368.56 166.57 355.85 166.35 348.18C166.13 340.51 164.59 336.12 165.03 334.18C165.47 332.24 175.33 302.18 175.33 302.18C175.33 302.18 178.4 295.6 179.06 291.44C179.525 287.82 178.681 284.152 176.68 281.1C175.36 279.35 155.2 273.87 155.2 273.87" stroke="#282828" stroke-linecap="round" stroke-linejoin="round"/>
<path d="M154.59 216.38C154.59 216.38 149.22 227.6 149.22 234.6C149.22 241.6 147.11 253.47 147.11 256.72C147.11 259.97 144.18 264.86 145.48 267.66C146.78 270.46 154.26 270.42 154.91 270.42C155.56 270.42 159.8 270.58 160.61 270.26C161.42 269.94 162.89 243.09 162.89 236.91C162.89 230.73 163.21 214.91 163.05 212.99C162.89 211.07 156.54 212.8 154.59 216.38Z" fill="white" stroke="#282828" stroke-linecap="round" stroke-linejoin="round"/>
<path d="M163.5 205.26C159.123 212.696 156.429 221.001 155.61 229.59C154.07 244.28 149.91 270.36 152.98 273.21C156.05 276.06 163.72 278.03 167.22 279.79C170.72 281.55 176.43 284.39 178.4 285.49C180.37 286.59 183.66 285.27 183.66 285.27C183.66 285.27 186.29 262.03 185.42 251.73C184.55 241.43 183.23 224.11 179.06 215.78C174.89 207.45 164.59 204.16 163.5 205.26Z" fill="#FFDF58" stroke="#282828" stroke-linecap="round" stroke-linejoin="round"/>
<path d="M163.94 279.79L161.31 282.64L165.69 288.56L168.32 283.52L163.94 279.79Z" fill="#CFCFCF" stroke="#282828" stroke-linecap="round" stroke-linejoin="round"/>
<path d="M163.94 220.16C163.94 220.16 160.21 229.81 162.18 237.7C164.15 245.59 169.42 262.03 169.42 262.03L162.84 279.79L169.42 285.71C169.42 285.71 183.23 262.91 183.23 259.84C183.23 256.77 180.16 225.42 178.84 221.26C177.52 217.1 175.33 213.15 172.05 213.15" fill="#FFDF58"/>
<path d="M163.94 220.16C163.94 220.16 160.21 229.81 162.18 237.7C164.15 245.59 169.42 262.03 169.42 262.03L162.84 279.79L169.42 285.71C169.42 285.71 183.23 262.91 183.23 259.84C183.23 256.77 180.16 225.42 178.84 221.26C177.52 217.1 175.33 213.15 172.05 213.15" stroke="#282828" stroke-linecap="round" stroke-linejoin="round"/>
<path d="M150.13 375.36C150.13 375.36 148.59 376.02 148.59 377.11C148.59 378.2 147.28 384.11 147.28 384.11C147.28 384.11 136.54 387.83 134.56 388.27C132.58 388.71 131.93 392.22 132.56 393.27C133.19 394.32 140.45 395.27 146.81 395.47C153.17 395.67 160.62 395.69 161.28 394.59C161.94 393.49 161.71 382.75 161.71 382.75L161.93 377.49C157.939 377.151 153.988 376.438 150.13 375.36V375.36Z" fill="white" stroke="#282828" stroke-linecap="round" stroke-linejoin="round"/>
<path d="M132.39 392.72C132.418 392.934 132.486 393.141 132.59 393.33C133.25 394.43 140.48 395.33 146.84 395.53C153.2 395.73 160.65 395.75 161.31 394.65C161.458 394.256 161.542 393.841 161.56 393.42C152.15 395.03 138.58 393.56 132.39 392.72Z" fill="white" stroke="#282828" stroke-linecap="round" stroke-linejoin="round"/>
<path d="M132.15 178.3C132.15 178.3 127.55 182.46 127.99 188.38C128.43 194.3 129.3 196.49 129.99 197.15C130.814 197.809 131.694 198.394 132.62 198.9C132.62 198.9 132.18 205.26 133.5 205.7C134.722 205.962 135.976 206.036 137.22 205.92C137.22 205.92 140.73 212.27 142.7 212.49C144.67 212.71 148.62 208.77 148.62 208.77L155.2 214.68L162.65 203.28L158.49 198.68C158.49 198.68 160.49 186.41 157.61 179.83C154.73 173.25 137.68 169.97 132.15 178.3Z" fill="white" stroke="#282828" stroke-linecap="round" stroke-linejoin="round"/>
<path d="M148.59 208.77L151.65 205.68L151.17 210.21L148.59 208.77Z" fill="#282828" stroke="#282828" stroke-linecap="round" stroke-linejoin="round"/>
<path d="M151.68 197.8C151.68 197.8 155.59 198.1 158.58 197.97C158.94 195.26 160.04 185.46 157.58 179.83C154.73 173.25 137.58 169.97 132.15 178.3C130.538 179.887 129.313 181.824 128.57 183.96C128.88 184.47 129.32 184.76 129.96 184.21C131.49 182.9 136.1 182.46 136.54 184.87C136.98 187.28 136.54 189.48 139.17 188.82C140.537 188.385 142.016 188.463 143.33 189.04C143.33 189.04 145.08 192.11 146.18 191.45C147.28 190.79 146.4 189.45 147.72 187.94C149.04 186.43 154.07 188.82 154.29 192.11C154.51 195.4 151.68 197.8 151.68 197.8Z" fill="#282828" stroke="#282828" stroke-linecap="round" stroke-linejoin="round"/>
<path d="M136.68 197.02C137.16 197.6 137.28 198.29 136.94 198.57C136.6 198.85 135.94 198.57 135.47 198.02C135 197.47 134.87 196.75 135.21 196.47C135.55 196.19 136.15 196.44 136.68 197.02Z" fill="#282828"/>
<path d="M133.37 196.24C133.37 196.24 132.84 194.24 135.37 194.24" stroke="#282828" stroke-linecap="round" stroke-linejoin="round"/>
<path d="M162.08 201.25L152.64 215.56L156.87 221.1L166.31 204.34L162.08 201.25Z" fill="white" stroke="#282828" stroke-linecap="round" stroke-linejoin="round"/>
</svg>
