<svg width="100" height="100" viewBox="0 0 100 100" fill="none" xmlns="http://www.w3.org/2000/svg">
<rect width="100" height="100" rx="50" fill="black"/>
<path d="M86.8198 32.867L52.388 18.5837C50.5117 17.8054 48.4873 17.8054 46.6123 18.5837L12.1793 32.867C9.27357 34.072 9.27357 39.2603 12.1793 40.4653L18.1821 42.9553C16.865 45.1536 16.0553 47.8352 15.975 50.7719C14.7863 51.6919 13.9494 53.3519 13.9494 55.3335C13.9494 57.1302 14.6505 58.6418 15.6602 59.6085L12.5089 78.755C12.2348 80.42 13.173 82 14.4357 82H21.3619C22.6259 82 23.564 80.42 23.29 78.755L20.1386 59.6085C21.1483 58.6418 21.8494 57.1302 21.8494 55.3335C21.8494 53.4052 21.0508 51.7919 19.9164 50.8552C20.0102 48.3519 20.9582 46.1386 22.4703 44.7352L46.6111 54.7502C47.7294 55.2135 49.8748 55.7918 52.3868 54.7502L86.8198 40.4669C89.7267 39.2603 89.7267 34.0736 86.8198 32.867ZM53.5471 59.8485C50.0254 61.3085 47.0246 60.5018 45.4508 59.8485L27.5498 52.4235L25.7994 71.3334C25.7994 77.225 36.4102 82 49.4995 82C62.5889 82 73.1996 77.225 73.1996 71.3334L71.4493 52.4219L53.5471 59.8485Z" fill="#FFDF58"/>
</svg>
