<svg width="100" height="100" viewBox="0 0 100 100" fill="none" xmlns="http://www.w3.org/2000/svg">
<rect width="100" height="100" rx="50" fill="black"/>
<path d="M38.2683 13C33.9173 13 30.3083 15.9832 29.2751 20.0141C29.1587 20.0141 29.0714 19.985 28.955 19.985C23.8181 19.985 19.6417 24.1614 19.6417 29.2983C19.6417 29.9968 19.729 30.6808 19.8891 31.3356C15.6398 33.0819 12.6567 37.2438 12.6567 42.1042C12.6567 43.9377 13.1223 45.6403 13.8645 47.1828C10.372 49.191 8 52.9164 8 57.2383C8 62.0842 10.9686 66.2461 15.1887 67.9923C15.0578 68.6617 14.985 69.3457 14.985 70.0442C14.985 75.8359 19.6708 80.5217 25.4625 80.5217C26.0591 80.5217 26.6412 80.4489 27.2088 80.347C28.6058 84.4944 32.4766 87.5067 37.1042 87.5067C42.8959 87.5067 47.5817 82.8209 47.5817 77.0292V22.3133C47.5817 17.1764 43.4052 13 38.2683 13ZM91.82 57.2383C91.82 52.9164 89.448 49.191 85.9555 47.1828C86.7122 45.6403 87.1633 43.9377 87.1633 42.1042C87.1633 37.2438 84.1802 33.0819 79.9309 31.3356C80.0765 30.6808 80.1783 29.9968 80.1783 29.2983C80.1783 24.1614 76.0019 19.985 70.865 19.985C70.7486 19.985 70.6467 20.0141 70.5449 20.0141C69.5117 15.9832 65.9027 13 61.5517 13C56.4148 13 52.2383 17.1619 52.2383 22.3133V77.0292C52.2383 82.8209 56.9241 87.5067 62.7158 87.5067C67.3434 87.5067 71.2143 84.4944 72.6113 80.347C73.1788 80.4489 73.7609 80.5217 74.3575 80.5217C80.1492 80.5217 84.835 75.8359 84.835 70.0442C84.835 69.3457 84.7622 68.6617 84.6313 67.9923C88.8514 66.2461 91.82 62.0842 91.82 57.2383Z" fill="#FFDF58"/>
</svg>
