<svg width="100" height="100" viewBox="0 0 100 100" fill="none" xmlns="http://www.w3.org/2000/svg">
<rect width="100" height="100" rx="50" fill="black"/>
<path d="M58.75 61.0714C58.75 62.2948 57.7711 63.2857 56.5625 63.2857H43.4375C42.2289 63.2857 41.25 62.2948 41.25 61.0714V54.4286H15V74.3571C15 77.9 18.0625 81 21.5625 81H78.4375C81.9375 81 85 77.9 85 74.3571V54.4286H58.75V61.0714ZM78.4375 32.2857H67.5V25.6429C67.5 22.1 64.4375 19 60.9375 19H39.0625C35.5625 19 32.5 22.1 32.5 25.6429V32.2857H21.5625C18.0625 32.2857 15 35.3857 15 38.9286V50H85V38.9286C85 35.3857 81.9375 32.2857 78.4375 32.2857ZM58.75 32.2857H41.25V27.8571H58.75V32.2857Z" fill="#FFDF58"/>
</svg>
