<svg width="100" height="100" viewBox="0 0 100 100" fill="none" xmlns="http://www.w3.org/2000/svg">
<rect width="100" height="100" rx="50" fill="black"/>
<path d="M82.6614 22.0069C75.621 22.4026 61.6276 23.8429 52.989 29.0797C52.3928 29.441 52.0549 30.0836 52.0549 30.7553V77.0511C52.0549 78.5206 53.6776 79.4494 55.0458 78.7674C63.9337 74.3372 76.7876 73.1285 83.1432 72.7977C85.3131 72.6845 87 70.9618 87 68.8968V25.9129C87.0013 23.6596 85.0279 21.8746 82.6614 22.0069ZM47.011 29.0797C38.3737 23.8429 24.3803 22.4039 17.3399 22.0069C14.9734 21.8746 13 23.6596 13 25.9129V68.8981C13 70.9643 14.6869 72.687 16.8568 72.799C23.215 73.1298 36.0753 74.3398 44.9632 78.7725C46.3276 79.4532 47.9451 78.5257 47.9451 77.06V30.7324C47.9451 30.0594 47.6085 29.4423 47.011 29.0797Z" fill="#FFDF58"/>
</svg>
