<svg width="100" height="100" viewBox="0 0 100 100" fill="none" xmlns="http://www.w3.org/2000/svg">
<rect width="100" height="100" rx="50" fill="black"/>
<path d="M36.0251 62.3125C35.7376 62.3125 35.45 62.3556 35.1757 62.4466C33.6165 62.9646 31.9766 63.2969 30.2501 63.2969C28.5237 63.2969 26.8838 62.9646 25.3234 62.4466C25.0491 62.3556 24.7627 62.3125 24.4752 62.3125C17.0086 62.3125 10.9605 68.5239 11.0002 76.17C11.017 79.4012 13.6146 82 16.7752 82H43.7251C46.8857 82 49.4833 79.4012 49.5001 76.17C49.5398 68.5239 43.4917 62.3125 36.0251 62.3125ZM30.2501 58.375C36.6291 58.375 41.8001 53.0864 41.8001 46.5625C41.8001 40.0386 36.6291 34.75 30.2501 34.75C23.8712 34.75 18.7002 40.0386 18.7002 46.5625C18.7002 53.0864 23.8712 58.375 30.2501 58.375ZM82.225 19H36.0251C32.8405 19 30.2501 21.7378 30.2501 25.1019V30.8125C33.0679 30.8125 35.6762 31.6468 37.9501 33.0027V26.875H80.3V62.3125H72.6V54.4375H57.2001V62.3125H48.0275C50.3254 64.3662 52.0122 67.0781 52.8027 70.1875H82.225C85.4097 70.1875 88 67.4497 88 64.0856V25.1019C88 21.7378 85.4097 19 82.225 19Z" fill="#FFDF58"/>
</svg>
