<svg width="100" height="100" viewBox="0 0 100 100" fill="none" xmlns="http://www.w3.org/2000/svg">
<rect width="100" height="100" rx="50" fill="black"/>
<path d="M86.0989 69.8001H13.9003C12.8506 69.8001 12.0003 70.6056 12.0003 71.6001V75.2C12.0003 76.1945 12.8506 77 13.9003 77H86.0989C87.1487 77 87.9989 76.1945 87.9989 75.2V71.6001C87.9989 70.6056 87.1487 69.8001 86.0989 69.8001ZM21.5655 57.7932C22.3112 58.5627 23.3586 58.9991 24.4546 58.998L39.9559 58.9778C41.1793 58.9762 42.385 58.7018 43.4756 58.1768L78.0265 41.5664C81.2018 40.0398 84.0482 37.8607 85.9849 35.0066C88.1592 31.8027 88.3955 29.4841 87.537 27.8461C86.6808 26.207 84.5991 25.0033 80.6199 24.758C77.0753 24.5398 73.5497 25.424 70.3744 26.9495L58.6765 32.5733L32.7064 23.3417C32.3941 23.1424 32.0314 23.0258 31.6556 23.0038C31.2798 22.9818 30.9047 23.0554 30.5689 23.2168L22.7613 26.9709C21.4942 27.5795 21.1879 29.1815 22.1473 30.1805L40.6981 41.2165L28.4422 47.1092L19.8508 43.0064C19.5548 42.865 19.2278 42.7915 18.8963 42.7919C18.5648 42.7923 18.2381 42.8666 17.9425 43.0086L13.1771 45.3002C11.9374 45.8965 11.6108 47.4512 12.5157 48.4592L21.5655 57.7932Z" fill="#FFDF58"/>
</svg>
